<mxfile host="app.diagrams.net" modified="2021-04-08T06:29:39.824Z" agent="5.0 (Macintosh; Intel Mac OS X 10_15_4) AppleWebKit/537.36 (KHTML, like Gecko) Chrome/88.0.4324.146 Safari/537.36" etag="3iD0zyTCoGkp1EIIT7Fl" version="14.5.8" type="github">
  <diagram id="C5RBs43oDa-KdzZeNtuy" name="Page-1">
    <mxGraphModel dx="1427" dy="793" grid="0" gridSize="10" guides="1" tooltips="1" connect="1" arrows="1" fold="1" page="1" pageScale="1" pageWidth="827" pageHeight="1169" math="0" shadow="0">
      <root>
        <mxCell id="WIyWlLk6GJQsqaUBKTNV-0" />
        <mxCell id="WIyWlLk6GJQsqaUBKTNV-1" parent="WIyWlLk6GJQsqaUBKTNV-0" />
        <mxCell id="66M_YLBouubVrnuJHgAB-0" value="Prometheus App&lt;br style=&quot;font-size: 14px;&quot;&gt;（pull 方式）" style="rounded=0;whiteSpace=wrap;html=1;fontSize=14;" vertex="1" parent="WIyWlLk6GJQsqaUBKTNV-1">
          <mxGeometry x="70" y="170" width="120" height="60" as="geometry" />
        </mxCell>
        <mxCell id="66M_YLBouubVrnuJHgAB-1" value="Prometheus App&lt;br style=&quot;font-size: 14px;&quot;&gt;（push 方式）" style="rounded=0;whiteSpace=wrap;html=1;fontSize=14;" vertex="1" parent="WIyWlLk6GJQsqaUBKTNV-1">
          <mxGeometry x="70" y="340" width="120" height="60" as="geometry" />
        </mxCell>
        <mxCell id="66M_YLBouubVrnuJHgAB-2" value="tencentcloud_cloudmonitor_agent&lt;br style=&quot;font-size: 14px;&quot;&gt;(数据预处理、聚合等)" style="rounded=1;whiteSpace=wrap;html=1;fontSize=14;" vertex="1" parent="WIyWlLk6GJQsqaUBKTNV-1">
          <mxGeometry x="370" y="250" width="229" height="60" as="geometry" />
        </mxCell>
        <mxCell id="66M_YLBouubVrnuJHgAB-3" value="云监控后端" style="rounded=1;whiteSpace=wrap;html=1;fontSize=14;" vertex="1" parent="WIyWlLk6GJQsqaUBKTNV-1">
          <mxGeometry x="650" y="250" width="120" height="60" as="geometry" />
        </mxCell>
        <mxCell id="66M_YLBouubVrnuJHgAB-4" value="" style="endArrow=classic;html=1;fontSize=14;" edge="1" parent="WIyWlLk6GJQsqaUBKTNV-1" source="66M_YLBouubVrnuJHgAB-2">
          <mxGeometry width="50" height="50" relative="1" as="geometry">
            <mxPoint x="580" y="330" as="sourcePoint" />
            <mxPoint x="650.7106781186548" y="280" as="targetPoint" />
          </mxGeometry>
        </mxCell>
        <mxCell id="66M_YLBouubVrnuJHgAB-5" value="" style="endArrow=classic;html=1;entryX=0;entryY=0.25;entryDx=0;entryDy=0;fontSize=14;" edge="1" parent="WIyWlLk6GJQsqaUBKTNV-1" source="66M_YLBouubVrnuJHgAB-0" target="66M_YLBouubVrnuJHgAB-2">
          <mxGeometry width="50" height="50" relative="1" as="geometry">
            <mxPoint x="240" y="290" as="sourcePoint" />
            <mxPoint x="310.71067811865476" y="240" as="targetPoint" />
          </mxGeometry>
        </mxCell>
        <mxCell id="66M_YLBouubVrnuJHgAB-6" value="暴露端口，供agent拉取数据" style="text;html=1;strokeColor=none;fillColor=none;align=center;verticalAlign=middle;whiteSpace=wrap;rounded=0;fontSize=14;" vertex="1" parent="WIyWlLk6GJQsqaUBKTNV-1">
          <mxGeometry x="220" y="200" width="170" height="20" as="geometry" />
        </mxCell>
        <mxCell id="66M_YLBouubVrnuJHgAB-8" value="" style="endArrow=classic;html=1;entryX=0;entryY=0.75;entryDx=0;entryDy=0;exitX=1;exitY=0.5;exitDx=0;exitDy=0;fontSize=14;" edge="1" parent="WIyWlLk6GJQsqaUBKTNV-1" source="66M_YLBouubVrnuJHgAB-1" target="66M_YLBouubVrnuJHgAB-2">
          <mxGeometry width="50" height="50" relative="1" as="geometry">
            <mxPoint x="240" y="390" as="sourcePoint" />
            <mxPoint x="310.71067811865476" y="340" as="targetPoint" />
          </mxGeometry>
        </mxCell>
        <mxCell id="66M_YLBouubVrnuJHgAB-9" value="直接将数据推给agent" style="text;html=1;strokeColor=none;fillColor=none;align=center;verticalAlign=middle;whiteSpace=wrap;rounded=0;fontSize=14;" vertex="1" parent="WIyWlLk6GJQsqaUBKTNV-1">
          <mxGeometry x="230" y="350" width="140" height="30" as="geometry" />
        </mxCell>
      </root>
    </mxGraphModel>
  </diagram>
</mxfile>
